<svg width="228" height="63" viewBox="0 0 228 63" fill="none" xmlns="http://www.w3.org/2000/svg">
<path fill-rule="evenodd" clip-rule="evenodd" d="M2.00002 2H227V61.9999H2.00002V2Z" fill="#5474FD"/>
<path fill-rule="evenodd" clip-rule="evenodd" d="M1.99998 1.99949H53.9999L111 61.9997H1.99998V1.99949Z" fill="#496BFE"/>
<path d="M71.232 33.112C72.9173 33.4427 73.76 34.3173 73.76 35.736C73.76 36.7707 73.3867 37.576 72.64 38.152C71.8933 38.7173 70.9227 39 69.728 39H64.528V38.296C64.528 38.136 64.608 38.04 64.768 38.008L65.68 37.816V28.728L64.768 28.536C64.608 28.504 64.528 28.408 64.528 28.248V27.544H69.344C70.592 27.544 71.5733 27.7787 72.288 28.248C73.0133 28.7173 73.376 29.4427 73.376 30.424C73.376 31.1173 73.2 31.6827 72.848 32.12C72.496 32.5573 71.9573 32.888 71.232 33.112ZM69.28 32.664C70.0907 32.664 70.72 32.5093 71.168 32.2C71.616 31.88 71.84 31.3947 71.84 30.744C71.84 30.0507 71.6267 29.5547 71.2 29.256C70.784 28.9467 70.1653 28.792 69.344 28.792H67.232V32.664H69.28ZM72.224 35.704C72.224 35.0427 72 34.5573 71.552 34.248C71.1147 33.9387 70.5013 33.784 69.712 33.784H67.232V37.768H69.728C70.5707 37.7787 71.1947 37.608 71.6 37.256C72.016 36.8933 72.224 36.376 72.224 35.704ZM87.2074 33.304C87.2074 34.4453 86.9674 35.464 86.4874 36.36C86.0074 37.2453 85.3407 37.9333 84.4874 38.424C83.634 38.9147 82.6634 39.16 81.5754 39.16C80.4767 39.16 79.4954 38.9093 78.6314 38.408C77.7674 37.9067 77.0954 37.2133 76.6154 36.328C76.146 35.432 75.9114 34.4187 75.9114 33.288C75.9114 32.1573 76.146 31.1493 76.6154 30.264C77.0954 29.368 77.762 28.6693 78.6154 28.168C79.4794 27.6667 80.466 27.416 81.5754 27.416C82.6847 27.416 83.666 27.6667 84.5194 28.168C85.3727 28.6587 86.034 29.3467 86.5034 30.232C86.9834 31.1173 87.2234 32.1307 87.2234 33.272L87.2074 33.304ZM85.6074 33.304C85.6074 31.928 85.25 30.8347 84.5354 30.024C83.8314 29.2027 82.834 28.792 81.5434 28.792C80.6794 28.792 79.9434 28.984 79.3354 29.368C78.7274 29.752 78.2634 30.2853 77.9434 30.968C77.634 31.6507 77.4794 32.4293 77.4794 33.304C77.4794 34.2107 77.6447 35.0053 77.9754 35.688C78.306 36.36 78.7754 36.8827 79.3834 37.256C80.002 37.6293 80.7274 37.816 81.5594 37.816C82.402 37.816 83.1274 37.6293 83.7354 37.256C84.3434 36.872 84.8074 36.3387 85.1274 35.656C85.458 34.9733 85.6234 34.1893 85.6234 33.304H85.6074ZM100.892 33.304C100.892 34.4453 100.652 35.464 100.172 36.36C99.6917 37.2453 99.0251 37.9333 98.1718 38.424C97.3184 38.9147 96.3477 39.16 95.2597 39.16C94.1611 39.16 93.1797 38.9093 92.3157 38.408C91.4517 37.9067 90.7797 37.2133 90.2997 36.328C89.8304 35.432 89.5957 34.4187 89.5957 33.288C89.5957 32.1573 89.8304 31.1493 90.2997 30.264C90.7797 29.368 91.4464 28.6693 92.2997 28.168C93.1637 27.6667 94.1504 27.416 95.2597 27.416C96.3691 27.416 97.3504 27.6667 98.2037 28.168C99.0571 28.6587 99.7184 29.3467 100.188 30.232C100.668 31.1173 100.908 32.1307 100.908 33.272L100.892 33.304ZM99.2917 33.304C99.2917 31.928 98.9344 30.8347 98.2198 30.024C97.5158 29.2027 96.5184 28.792 95.2277 28.792C94.3637 28.792 93.6277 28.984 93.0197 29.368C92.4117 29.752 91.9477 30.2853 91.6277 30.968C91.3184 31.6507 91.1637 32.4293 91.1637 33.304C91.1637 34.2107 91.3291 35.0053 91.6597 35.688C91.9904 36.36 92.4597 36.8827 93.0677 37.256C93.6864 37.6293 94.4117 37.816 95.2438 37.816C96.0864 37.816 96.8118 37.6293 97.4198 37.256C98.0278 36.872 98.4918 36.3387 98.8118 35.656C99.1424 34.9733 99.3077 34.1893 99.3077 33.304H99.2917ZM113.21 38.04C113.37 38.072 113.45 38.168 113.45 38.328V38.968H109.69V38.328C109.69 38.1787 109.765 38.088 109.914 38.056C109.978 38.056 110.224 38.008 110.65 37.912L107.338 34.104C107.136 33.9013 106.97 33.784 106.842 33.752C106.746 33.7307 106.613 33.72 106.442 33.72H105.738V37.816L106.634 38.008C106.805 38.04 106.89 38.136 106.89 38.296V38.984H103.034V38.296C103.034 38.136 103.114 38.04 103.274 38.008L104.186 37.816V28.696C103.674 28.6 103.37 28.536 103.274 28.504C103.114 28.472 103.034 28.3707 103.034 28.2V27.512H106.89V28.2C106.89 28.3707 106.805 28.472 106.634 28.504L105.738 28.696V32.536H106.314C106.688 32.536 106.965 32.4293 107.146 32.216L110.346 28.568L109.642 28.44C109.493 28.408 109.418 28.312 109.418 28.152V27.512H113.034L113.066 28.12C113.066 28.2907 112.981 28.392 112.81 28.424C112.661 28.4773 112.416 28.5413 112.074 28.616L108.666 32.472C108.464 32.7067 108.256 32.8773 108.042 32.984C108.277 33.048 108.522 33.24 108.778 33.56L112.41 37.88L112.842 37.976L113.226 38.056L113.21 38.04ZM131.863 28.248C131.863 28.408 131.778 28.504 131.607 28.536L130.695 28.728V39.016H129.911C129.698 39.016 129.516 38.9253 129.367 38.744L122.727 30.104C122.748 30.2853 122.759 30.5307 122.759 30.84V37.848C123.058 37.8907 123.415 37.9547 123.831 38.04C123.98 38.072 124.055 38.168 124.055 38.328V39.016H120.247V38.328C120.247 38.168 120.327 38.072 120.487 38.04L121.399 37.848V28.728C120.887 28.632 120.583 28.568 120.487 28.536C120.327 28.504 120.247 28.4027 120.247 28.232V27.544H122.199C122.338 27.544 122.439 27.56 122.503 27.592C122.546 27.6133 122.626 27.6827 122.743 27.8L129.367 36.44C129.346 36.2907 129.335 36.0347 129.335 35.672V28.728C129.026 28.6853 128.78 28.648 128.599 28.616C128.418 28.5733 128.311 28.5467 128.279 28.536C128.108 28.504 128.023 28.408 128.023 28.248V27.544H131.863V28.248ZM144.973 33.304C144.973 34.4453 144.733 35.464 144.253 36.36C143.773 37.2453 143.106 37.9333 142.253 38.424C141.4 38.9147 140.429 39.16 139.341 39.16C138.242 39.16 137.261 38.9093 136.397 38.408C135.533 37.9067 134.861 37.2133 134.381 36.328C133.912 35.432 133.677 34.4187 133.677 33.288C133.677 32.1573 133.912 31.1493 134.381 30.264C134.861 29.368 135.528 28.6693 136.381 28.168C137.245 27.6667 138.232 27.416 139.341 27.416C140.45 27.416 141.432 27.6667 142.285 28.168C143.138 28.6587 143.8 29.3467 144.269 30.232C144.749 31.1173 144.989 32.1307 144.989 33.272L144.973 33.304ZM143.373 33.304C143.373 31.928 143.016 30.8347 142.301 30.024C141.597 29.2027 140.6 28.792 139.309 28.792C138.445 28.792 137.709 28.984 137.101 29.368C136.493 29.752 136.029 30.2853 135.709 30.968C135.4 31.6507 135.245 32.4293 135.245 33.304C135.245 34.2107 135.41 35.0053 135.741 35.688C136.072 36.36 136.541 36.8827 137.149 37.256C137.768 37.6293 138.493 37.816 139.325 37.816C140.168 37.816 140.893 37.6293 141.501 37.256C142.109 36.872 142.573 36.3387 142.893 35.656C143.224 34.9733 143.389 34.1893 143.389 33.304H143.373ZM163.8 28.232C163.8 28.4027 163.715 28.504 163.544 28.536L162.744 28.712L159.544 39H158.136L155.24 30.264C155.187 30.136 155.133 29.944 155.08 29.688L155 29.976C154.989 30.0187 154.979 30.0667 154.968 30.12C154.957 30.1733 154.947 30.2213 154.936 30.264L152.024 39H150.616L147.416 28.696C147 28.6107 146.733 28.5467 146.616 28.504C146.445 28.472 146.36 28.376 146.36 28.216V27.528H150.264V28.216C150.264 28.376 150.179 28.472 150.008 28.504C149.773 28.5573 149.581 28.6 149.432 28.632C149.283 28.664 149.176 28.6853 149.112 28.696L151.224 35.864C151.341 36.2907 151.416 36.6213 151.448 36.856C151.544 36.3973 151.624 36.0667 151.688 35.864L154.392 27.896C154.424 27.8107 154.488 27.7253 154.584 27.64C154.691 27.5547 154.803 27.512 154.92 27.512H155.368C155.624 27.512 155.8 27.64 155.896 27.896L158.584 35.864C158.701 36.2267 158.787 36.5467 158.84 36.824L158.92 36.312L159.016 35.864L161.144 28.696C161.08 28.696 160.893 28.6587 160.584 28.584L160.248 28.52C160.077 28.488 159.992 28.3867 159.992 28.216V27.544H163.8V28.232Z" fill="white"/>
</svg>
