<svg width="228" height="63" viewBox="0 0 228 63" fill="none" xmlns="http://www.w3.org/2000/svg">
<path fill-rule="evenodd" clip-rule="evenodd" d="M2.00002 1.99994H227V61.9999H2.00002V1.99994Z" fill="#5474FD"/>
<path fill-rule="evenodd" clip-rule="evenodd" d="M1.99998 1.99968H54L111 61.9999H1.99998V1.99968Z" fill="#496BFE"/>
<path d="M48.768 30.312H48C47.808 30.312 47.696 30.2213 47.664 30.04L47.552 28.808H43.264V32.616H47.488V33.832H43.264V37.752H47.552L47.648 36.6C47.68 36.4293 47.7973 36.344 48 36.344H48.768V39H40.544V38.328C40.544 38.1573 40.624 38.056 40.784 38.024L41.696 37.848V28.712C41.184 28.616 40.88 28.552 40.784 28.52C40.624 28.488 40.544 28.3867 40.544 28.216V27.544H48.768V30.312ZM61.9506 38.024C62.1 38.056 62.1746 38.1573 62.1746 38.328V39H57.9666V38.328C57.9666 38.1573 58.0466 38.056 58.2066 38.024C58.2706 38.024 58.436 37.992 58.7026 37.928C58.8733 37.8853 59.012 37.8587 59.1186 37.848L56.6066 33.912C56.5746 34.0293 56.5266 34.136 56.4626 34.232L54.0466 37.848L54.9586 38.024C55.1186 38.056 55.1986 38.1573 55.1986 38.328V39H51.0706V38.328C51.0706 38.1573 51.156 38.056 51.3266 38.024L52.3826 37.848L55.5506 33.112L52.5586 28.712C51.9506 28.616 51.5986 28.552 51.5026 28.52C51.3426 28.488 51.2626 28.3867 51.2626 28.216V27.544H55.3426V28.216C55.3426 28.3867 55.2573 28.488 55.0866 28.52L54.3186 28.664L56.7026 32.344C56.7346 32.216 56.7933 32.088 56.8786 31.96L59.0706 28.696C59.028 28.6853 58.98 28.6747 58.9266 28.664C58.8733 28.6533 58.8093 28.6427 58.7346 28.632C58.6706 28.6107 58.484 28.568 58.1746 28.504C58.004 28.472 57.9186 28.376 57.9186 28.216V27.528H62.0466V28.216C62.0466 28.376 61.9773 28.472 61.8386 28.504C61.7106 28.536 61.3426 28.6 60.7346 28.696L57.7426 33.032L60.8946 37.816C61.5026 37.912 61.8546 37.976 61.9506 38.008V38.024ZM70.6051 27.768C72.1838 28.28 72.9731 29.3893 72.9731 31.096C72.9731 32.1947 72.6105 33.0587 71.8851 33.688C71.1065 34.3707 70.0505 34.712 68.7171 34.712H67.0851V37.832C67.1705 37.864 67.4798 37.928 68.0131 38.024C68.1625 38.056 68.2371 38.1573 68.2371 38.328V39H64.3971V38.328C64.3971 38.1573 64.4771 38.056 64.6371 38.024L65.5491 37.848V28.712C65.0371 28.616 64.7331 28.552 64.6371 28.52C64.4771 28.488 64.3971 28.3867 64.3971 28.216V27.544H68.7171C69.4318 27.544 70.0611 27.624 70.6051 27.784V27.768ZM71.4211 31.064C71.4211 30.3493 71.1971 29.784 70.7491 29.368C70.3118 28.9627 69.6345 28.76 68.7171 28.76H67.0851V33.464H68.7171C69.5811 33.464 70.2478 33.2507 70.7171 32.824C71.1971 32.3867 71.4371 31.8053 71.4371 31.08L71.4211 31.064ZM75.0502 39V38.312C75.0502 38.2373 75.0716 38.1733 75.1142 38.12C75.1569 38.056 75.2156 38.0187 75.2902 38.008L76.2022 37.832V28.696L75.2902 28.52C75.2156 28.5093 75.1569 28.4773 75.1142 28.424C75.0716 28.36 75.0502 28.2907 75.0502 28.216V27.544H78.8902V28.216C78.8902 28.2907 78.8689 28.36 78.8262 28.424C78.7836 28.4773 78.7249 28.5093 78.6502 28.52L77.7382 28.696V37.688H81.8662C81.8982 37.1973 81.9302 36.8933 81.9622 36.776C81.9729 36.7013 82.0102 36.6373 82.0742 36.584C82.1382 36.5307 82.2129 36.504 82.2982 36.504H83.0822V39H75.0502ZM95.8386 33.304C95.8386 34.4453 95.5986 35.464 95.1186 36.36C94.6386 37.2453 93.972 37.9333 93.1186 38.424C92.2653 38.9147 91.2946 39.16 90.2066 39.16C89.108 39.16 88.1266 38.9093 87.2626 38.408C86.3986 37.9067 85.7266 37.2133 85.2466 36.328C84.7773 35.432 84.5426 34.4187 84.5426 33.288C84.5426 32.1573 84.7773 31.1493 85.2466 30.264C85.7266 29.368 86.3933 28.6693 87.2466 28.168C88.1106 27.6667 89.0973 27.416 90.2066 27.416C91.316 27.416 92.2973 27.6667 93.1506 28.168C94.004 28.6587 94.6653 29.3467 95.1346 30.232C95.6146 31.1173 95.8546 32.1307 95.8546 33.272L95.8386 33.304ZM94.2386 33.304C94.2386 31.928 93.8813 30.8347 93.1666 30.024C92.4626 29.2027 91.4653 28.792 90.1746 28.792C89.3106 28.792 88.5746 28.984 87.9666 29.368C87.3586 29.752 86.8946 30.2853 86.5746 30.968C86.2653 31.6507 86.1106 32.4293 86.1106 33.304C86.1106 34.2107 86.276 35.0053 86.6066 35.688C86.9373 36.36 87.4066 36.8827 88.0146 37.256C88.6333 37.6293 89.3586 37.816 90.1906 37.816C91.0333 37.816 91.7586 37.6293 92.3666 37.256C92.9746 36.872 93.4386 36.3387 93.7586 35.656C94.0893 34.9733 94.2546 34.1893 94.2546 33.304H94.2386ZM107.485 38.008C107.56 38.0293 107.618 38.0667 107.661 38.12C107.704 38.1627 107.725 38.2213 107.725 38.296V39H106.061C105.784 39 105.581 38.888 105.453 38.664L102.477 34.568C102.402 34.4613 102.306 34.3707 102.189 34.296C102.093 34.232 101.933 34.2 101.709 34.2H100.685V37.816L101.581 38.008C101.656 38.0293 101.714 38.0667 101.757 38.12C101.81 38.1627 101.837 38.2213 101.837 38.296V38.984H97.9811V38.296C97.9811 38.2213 98.0025 38.1627 98.0451 38.12C98.0878 38.0667 98.1465 38.0293 98.2211 38.008L99.1491 37.816V28.696L98.2211 28.504C98.1465 28.4827 98.0878 28.4507 98.0451 28.408C98.0025 28.3547 97.9811 28.2907 97.9811 28.216V27.512H102.221C102.936 27.512 103.565 27.5867 104.109 27.736C104.642 27.8853 105.08 28.0987 105.421 28.376C105.773 28.664 106.029 29 106.189 29.384C106.349 29.768 106.429 30.2107 106.429 30.712C106.429 31.1067 106.365 31.48 106.237 31.832C106.109 32.1733 105.922 32.4933 105.677 32.792C105.432 33.0907 105.138 33.3307 104.797 33.512C104.37 33.7467 103.976 33.9013 103.613 33.976C103.805 34.0933 103.976 34.2533 104.125 34.456L106.605 37.848C107.117 37.9333 107.416 37.9867 107.501 38.008H107.485ZM102.125 33.08C102.594 33.08 102.994 33.0267 103.325 32.92C103.645 32.8133 103.933 32.6533 104.189 32.44C104.424 32.2373 104.6 32.0027 104.717 31.736C104.834 31.4693 104.893 31.16 104.893 30.808C104.893 30.136 104.669 29.624 104.221 29.272C103.784 28.9307 103.117 28.76 102.221 28.76H100.669V33.08H102.125ZM118.124 30.312H117.356C117.164 30.312 117.052 30.2213 117.02 30.04L116.908 28.808H112.62V32.616H116.844V33.832H112.62V37.752H116.908L117.004 36.6C117.036 36.4293 117.154 36.344 117.356 36.344H118.124V39H109.9V38.328C109.9 38.1573 109.98 38.056 110.14 38.024L111.052 37.848V28.712C110.54 28.616 110.236 28.552 110.14 28.52C109.98 28.488 109.9 28.3867 109.9 28.216V27.544H118.124V30.312ZM131.336 27.768C132.915 28.28 133.704 29.3893 133.704 31.096C133.704 32.1947 133.342 33.0587 132.616 33.688C131.838 34.3707 130.782 34.712 129.448 34.712H127.816V37.832C127.902 37.864 128.211 37.928 128.744 38.024C128.894 38.056 128.968 38.1573 128.968 38.328V39H125.128V38.328C125.128 38.1573 125.208 38.056 125.368 38.024L126.28 37.848V28.712C125.768 28.616 125.464 28.552 125.368 28.52C125.208 28.488 125.128 28.3867 125.128 28.216V27.544H129.448C130.163 27.544 130.792 27.624 131.336 27.784V27.768ZM132.152 31.064C132.152 30.3493 131.928 29.784 131.48 29.368C131.043 28.9627 130.366 28.76 129.448 28.76H127.816V33.464H129.448C130.312 33.464 130.979 33.2507 131.448 32.824C131.928 32.3867 132.168 31.8053 132.168 31.08L132.152 31.064ZM135.782 39V38.312C135.782 38.2373 135.803 38.1733 135.846 38.12C135.888 38.056 135.947 38.0187 136.022 38.008L136.934 37.832V28.696L136.022 28.52C135.947 28.5093 135.888 28.4773 135.846 28.424C135.803 28.36 135.782 28.2907 135.782 28.216V27.544H139.622V28.216C139.622 28.2907 139.6 28.36 139.558 28.424C139.515 28.4773 139.456 28.5093 139.382 28.52L138.47 28.696V37.688H142.598C142.63 37.1973 142.662 36.8933 142.694 36.776C142.704 36.7013 142.742 36.6373 142.806 36.584C142.87 36.5307 142.944 36.504 143.03 36.504H143.814V39H135.782ZM157.323 38.104C157.461 38.136 157.531 38.2213 157.531 38.36V39H154.235V38.36C154.235 38.2213 154.309 38.136 154.459 38.104L155.115 37.912L154.219 35.608H149.275L148.379 37.912L149.035 38.104C149.173 38.136 149.243 38.2213 149.243 38.36V39H145.963V38.36C145.963 38.2213 146.032 38.136 146.171 38.104L146.811 37.912L150.971 27.544H152.539L156.683 37.912L157.323 38.104ZM152.091 30.088C152.005 29.8747 151.888 29.512 151.739 29C151.611 29.4907 151.504 29.8533 151.419 30.088L149.707 34.488H153.786L152.091 30.088ZM168.084 30.904H167.316C167.114 30.904 166.996 30.808 166.964 30.616L166.836 29.176C165.94 28.888 165.135 28.744 164.42 28.744C163.215 28.744 162.223 29.1493 161.444 29.96C160.666 30.8027 160.276 31.9067 160.276 33.272C160.276 34.1573 160.436 34.9413 160.756 35.624C161.087 36.3067 161.551 36.84 162.148 37.224C162.756 37.5973 163.46 37.784 164.26 37.784C164.879 37.784 165.418 37.7093 165.876 37.56C166.346 37.4 166.783 37.1333 167.188 36.76C167.284 36.6747 167.38 36.632 167.476 36.632C167.562 36.632 167.636 36.664 167.7 36.728L168.308 37.4C167.316 38.552 165.94 39.128 164.18 39.128C163.071 39.128 162.1 38.8773 161.268 38.376C160.447 37.864 159.812 37.1653 159.364 36.28C158.927 35.3947 158.708 34.392 158.708 33.272C158.708 31.5547 159.242 30.1467 160.308 29.048C161.364 27.96 162.81 27.416 164.644 27.416C165.498 27.416 166.644 27.6827 168.084 28.216V30.904ZM178.48 30.312H177.712C177.52 30.312 177.408 30.2213 177.376 30.04L177.264 28.808H172.976V32.616H177.2V33.832H172.976V37.752H177.264L177.36 36.6C177.392 36.4293 177.51 36.344 177.712 36.344H178.48V39H170.256V38.328C170.256 38.1573 170.336 38.056 170.496 38.024L171.408 37.848V28.712C170.896 28.616 170.592 28.552 170.496 28.52C170.336 28.488 170.256 28.3867 170.256 28.216V27.544H178.48V30.312ZM186.287 32.936C187.439 33.448 188.015 34.3067 188.015 35.512C188.015 36.568 187.684 37.4267 187.023 38.088C186.33 38.7813 185.38 39.128 184.175 39.128C183.674 39.128 183.151 39.08 182.607 38.984C182.18 38.9093 181.754 38.808 181.327 38.68L180.863 38.52V35.64H181.647C181.828 35.64 181.935 35.7307 181.967 35.912C181.988 35.9973 182.015 36.2587 182.047 36.696L182.095 37.4C182.927 37.6987 183.578 37.848 184.047 37.848C184.516 37.848 184.911 37.7947 185.231 37.688C185.54 37.592 185.786 37.448 185.967 37.256C186.372 36.8827 186.575 36.376 186.575 35.736C186.575 35.1173 186.287 34.648 185.711 34.328C185.455 34.168 185.167 34.04 184.847 33.944C183.706 33.592 183.034 33.368 182.831 33.272C182.522 33.1333 182.228 32.9413 181.951 32.696C181.386 32.1947 181.103 31.48 181.103 30.552C181.103 29.7093 181.407 28.984 182.015 28.376C182.676 27.736 183.53 27.416 184.575 27.416C185.684 27.416 186.756 27.6293 187.791 28.056V30.696H187.023C186.831 30.696 186.719 30.6053 186.687 30.424C186.687 30.392 186.676 30.2853 186.655 30.104C186.644 29.912 186.618 29.544 186.575 29C185.828 28.7973 185.199 28.696 184.687 28.696C183.994 28.696 183.46 28.8667 183.087 29.208C182.724 29.5387 182.543 29.9653 182.543 30.488C182.543 31.0533 182.831 31.496 183.407 31.816C183.642 31.9653 183.94 32.0987 184.303 32.216C185.263 32.536 185.935 32.776 186.319 32.936H186.287Z" fill="white"/>
</svg>
